<?xml version="1.0" encoding="UTF-8"?>
<svg version="1.1" xmlns="http://www.w3.org/2000/svg" width="256" height="100">
<path d="M0 0 C0.28875 0.61875 0.5775 1.2375 0.875 1.875 C1.93720042 4.13325765 1.93720042 4.13325765 4 6 C7.0794684 6.20680742 7.0794684 6.20680742 10.6875 6.0625 C12.0494484 6.04762976 13.41143545 6.0360036 14.7734375 6.02734375 C15.82289551 6.01936768 15.82289551 6.01936768 16.89355469 6.01123047 C27.27227497 5.95589654 35.73420687 6.0751022 44 13 C44.495 13.99 44.495 13.99 45 15 C45.99 15.495 45.99 15.495 47 16 C49 17 49 17 50 19 C50.66 19.33 51.32 19.66 52 20 C52.34114136 21.331357 52.67259583 22.66519837 53 24 C53.95568262 25.8249916 54.93786759 27.63620639 55.9375 29.4375 C61.27509375 40.03551747 62.14289519 50.55986151 59 62 C56.1030291 69.91058385 52.10309696 75.54043038 45.85546875 81.16015625 C43.76346694 82.95794668 43.76346694 82.95794668 43 86 C36.23436036 90.93860921 29.57848974 91.71264279 21.4375 91.4375 C19.97280273 91.42879883 19.97280273 91.42879883 18.47851562 91.41992188 C12.41835137 91.31858134 6.85081697 90.55374695 1 89 C0.32122803 88.85103271 -0.35754395 88.70206543 -1.05688477 88.54858398 C-4.18269706 87.66609872 -6.43579407 85.95102625 -9 84 C-9.67646829 82.67161268 -10.34231682 81.33778737 -11 80 C-12.09133546 78.72050326 -13.21911797 77.47149979 -14.375 76.25 C-22.92655968 66.66727512 -24.9084925 55.62050594 -24.21289062 43.00830078 C-23.53418539 36.60574433 -20.93154586 30.66601301 -18 25 C-17.67 24.34 -17.34 23.68 -17 23 C-16.67 23 -16.34 23 -16 23 C-15.95101563 21.91460938 -15.90203125 20.82921875 -15.8515625 19.7109375 C-15.77648014 18.26560216 -15.70093472 16.82029081 -15.625 15.375 C-15.57859375 14.30572266 -15.57859375 14.30572266 -15.53125 13.21484375 C-15.28979845 8.82847392 -14.60657269 5.1405166 -13 1 C-8.60563789 0.14256349 -4.47427924 -0.08948558 0 0 Z M5 7 C9 8 9 8 9 8 Z " fill="#F3F6FB" transform="translate(33,4)"/>
<path d="M0 0 C0.28875 0.61875 0.5775 1.2375 0.875 1.875 C1.93720042 4.13325765 1.93720042 4.13325765 4 6 C7.0794684 6.20680742 7.0794684 6.20680742 10.6875 6.0625 C12.0494484 6.04762976 13.41143545 6.0360036 14.7734375 6.02734375 C15.82289551 6.01936768 15.82289551 6.01936768 16.89355469 6.01123047 C27.27227497 5.95589654 35.73420687 6.0751022 44 13 C44.495 13.99 44.495 13.99 45 15 C45.99 15.495 45.99 15.495 47 16 C49 17 49 17 50 19 C50.66 19.33 51.32 19.66 52 20 C52.34114136 21.331357 52.67259583 22.66519837 53 24 C53.95568262 25.8249916 54.93786759 27.63620639 55.9375 29.4375 C61.27509375 40.03551747 62.14289519 50.55986151 59 62 C56.1030291 69.91058385 52.10309696 75.54043038 45.85546875 81.16015625 C43.76346694 82.95794668 43.76346694 82.95794668 43 86 C36.23436036 90.93860921 29.57848974 91.71264279 21.4375 91.4375 C19.97280273 91.42879883 19.97280273 91.42879883 18.47851562 91.41992188 C12.41835137 91.31858134 6.85081697 90.55374695 1 89 C0.32122803 88.85103271 -0.35754395 88.70206543 -1.05688477 88.54858398 C-4.18269706 87.66609872 -6.43579407 85.95102625 -9 84 C-9.67646829 82.67161268 -10.34231682 81.33778737 -11 80 C-12.09133546 78.72050326 -13.21911797 77.47149979 -14.375 76.25 C-22.92655968 66.66727512 -24.9084925 55.62050594 -24.21289062 43.00830078 C-23.53418539 36.60574433 -20.93154586 30.66601301 -18 25 C-17.67 24.34 -17.34 23.68 -17 23 C-16.67 23 -16.34 23 -16 23 C-15.95101563 21.91460938 -15.90203125 20.82921875 -15.8515625 19.7109375 C-15.77648014 18.26560216 -15.70093472 16.82029081 -15.625 15.375 C-15.57859375 14.30572266 -15.57859375 14.30572266 -15.53125 13.21484375 C-15.28979845 8.82847392 -14.60657269 5.1405166 -13 1 C-8.60563789 0.14256349 -4.47427924 -0.08948558 0 0 Z M-10.69740295 5.23277283 C-12.36176405 7.49080355 -12.38557226 8.79744498 -12.40405273 11.58813477 C-12.41673691 12.51662735 -12.42942108 13.44511993 -12.44248962 14.40174866 C-12.43955399 15.40483566 -12.43661835 16.40792267 -12.43359375 17.44140625 C-12.4388356 18.47885483 -12.44407745 19.51630341 -12.44947815 20.58518982 C-12.4559074 22.7850556 -12.45454974 24.98495572 -12.44604492 27.18481445 C-12.4375935 30.52554073 -12.46618973 33.86452343 -12.49804688 37.20507812 C-12.49966062 39.34635366 -12.49907805 41.48763219 -12.49609375 43.62890625 C-12.50732773 44.61782364 -12.51856171 45.60674103 -12.53013611 46.62562561 C-12.43451114 56.31516094 -9.59885779 64.16124033 -2.93359375 71.2421875 C4.68683488 78.16984989 11.2601292 79.37198477 21.38671875 79.27734375 C28.60871289 78.7230069 35.13032704 75.96491259 40.39453125 70.92578125 C47.24024183 62.7142598 49.12846787 54.34838684 48.515625 43.93359375 C47.81794899 38.61117144 46.41958871 35.10177939 43 31 C42.46890625 30.35675781 41.9378125 29.71351562 41.390625 29.05078125 C36.46467856 23.66161508 29.83239062 19.37730377 22.3984375 18.796875 C14.34295546 18.67198381 7.78825235 19.47449844 1 24 C0.95101562 22.72382813 0.90203125 21.44765625 0.8515625 20.1328125 C0.77653809 18.46351928 0.70099012 16.79424954 0.625 15.125 C0.5940625 14.28324219 0.563125 13.44148438 0.53125 12.57421875 C0.49257813 11.76855469 0.45390625 10.96289062 0.4140625 10.1328125 C0.3826416 9.38918457 0.3512207 8.64555664 0.31884766 7.87939453 C0.14580449 5.75989026 0.14580449 5.75989026 -2 4 C-6.61340026 3.4524469 -6.61340026 3.4524469 -10.69740295 5.23277283 Z M5 7 C9 8 9 8 9 8 Z " fill="#070469" transform="translate(33,4)"/>
<path d="M0 0 C6.08613791 2.75215341 9.96742507 6.35346332 13.26171875 12.1640625 C15.4175402 18.63152686 15.07255897 25.24321354 12.32421875 31.4765625 C8.96493343 37.52135098 3.74256685 41.0037798 -2.73828125 43.1640625 C-9.57361965 43.90465867 -15.13317176 43.31857429 -20.73828125 39.1640625 C-26.51731039 33.8067771 -29.61900671 28.86201911 -30.17578125 20.9140625 C-30.00450972 15.27161721 -28.07802917 10.68344615 -24.73828125 6.1640625 C-17.23924021 -0.22305177 -9.73887479 -2.97306591 0 0 Z " fill="#0A076A" transform="translate(58.73828125,31.8359375)"/>
<path d="M0 0 C0.79035645 0.18199951 1.58071289 0.36399902 2.39501953 0.55151367 C3.19536621 0.73431885 3.99571289 0.91712402 4.8203125 1.10546875 C5.72740967 1.31659302 5.72740967 1.31659302 6.65283203 1.53198242 C6.74034616 5.40683877 6.79339638 9.28143885 6.84033203 13.15698242 C6.86546875 14.25139648 6.89060547 15.34581055 6.91650391 16.47338867 C6.97868068 23.3128337 6.48309555 27.84033435 2.21533203 33.40698242 C0.65283203 34.53198242 0.65283203 34.53198242 -3.34716797 34.53198242 C-3.67716797 35.52198242 -4.00716797 36.51198242 -4.34716797 37.53198242 C-6.34716797 39.53198242 -6.34716797 39.53198242 -8.90966797 39.71948242 C-11.34716797 39.53198242 -11.34716797 39.53198242 -12.34716797 38.53198242 C-12.32654297 37.62448242 -12.30591797 36.71698242 -12.28466797 35.78198242 C-12.34844176 32.46574528 -13.04896221 30.53408325 -14.34716797 27.53198242 C-14.34716797 26.54198242 -14.34716797 25.55198242 -14.34716797 24.53198242 C-13.02716797 24.20198242 -11.70716797 23.87198242 -10.34716797 23.53198242 C-11.66716797 23.20198242 -12.98716797 22.87198242 -14.34716797 22.53198242 C-14.01716797 21.87198242 -13.68716797 21.21198242 -13.34716797 20.53198242 C-13.65654297 19.99573242 -13.96591797 19.45948242 -14.28466797 18.90698242 C-15.82044614 15.47406652 -15.81361296 12.19993623 -15.34716797 8.53198242 C-12.06253457 0.24219336 -8.97902708 -1.79038849 0 0 Z M-8.34716797 0.53198242 C-8.34716797 0.86198242 -8.34716797 1.19198242 -8.34716797 1.53198242 C-6.36716797 1.53198242 -4.38716797 1.53198242 -2.34716797 1.53198242 C-2.34716797 1.20198242 -2.34716797 0.87198242 -2.34716797 0.53198242 C-4.32716797 0.53198242 -6.30716797 0.53198242 -8.34716797 0.53198242 Z M-8.34716797 8.53198242 C-9.02517831 11.43271423 -9.02517831 11.43271423 -9.34716797 14.53198242 C-8.68716797 15.19198242 -8.02716797 15.85198242 -7.34716797 16.53198242 C-7.01716797 16.20198242 -6.68716797 15.87198242 -6.34716797 15.53198242 C-4.67173821 15.8180314 -3.00331454 16.14979475 -1.34716797 16.53198242 C-0.14878588 14.20343779 -0.14878588 14.20343779 0.65283203 11.53198242 C-0.00716797 10.54198242 -0.66716797 9.55198242 -1.34716797 8.53198242 C-2.13091797 8.71760742 -2.91466797 8.90323242 -3.72216797 9.09448242 C-6.34716797 9.53198242 -6.34716797 9.53198242 -8.34716797 8.53198242 Z M-7.34716797 23.53198242 C-3.34716797 24.53198242 -3.34716797 24.53198242 -3.34716797 24.53198242 Z M-1.34716797 23.53198242 C-0.34716797 25.53198242 -0.34716797 25.53198242 -0.34716797 25.53198242 Z M-6.34716797 32.53198242 C-6.34716797 32.86198242 -6.34716797 33.19198242 -6.34716797 33.53198242 C-4.03716797 33.53198242 -1.72716797 33.53198242 0.65283203 33.53198242 C0.65283203 33.20198242 0.65283203 32.87198242 0.65283203 32.53198242 C-1.65716797 32.53198242 -3.96716797 32.53198242 -6.34716797 32.53198242 Z " fill="#000000" transform="translate(194.34716796875,20.468017578125)"/>
<path d="M0 0 C1.68740514 -0.02746229 3.3749463 -0.04660111 5.0625 -0.0625 C6.47208984 -0.07990234 6.47208984 -0.07990234 7.91015625 -0.09765625 C11.33134024 0.01047219 14.62162296 0.46435221 18 1 C18.08770383 4.85402129 18.14062735 8.70778291 18.1875 12.5625 C18.21263672 13.64853516 18.23777344 14.73457031 18.26367188 15.85351562 C18.31929224 21.95321531 18.28037037 26.74403579 15 32 C11.82286487 33.70598343 8.25740789 32.90561599 4.75 32.5625 C3.67234375 32.46066406 2.5946875 32.35882813 1.484375 32.25390625 C0.66453125 32.17011719 -0.1553125 32.08632812 -1 32 C-3.33928571 26.61607143 -3.33928571 26.61607143 -2 23 C-0.68 23 0.64 23 2 23 C1.566875 22.59910156 1.13375 22.19820312 0.6875 21.78515625 C-2.55162834 18.47854607 -4.44339984 16.11518639 -4.5625 11.375 C-4.30341059 7.57286284 -3.32939589 5.07480258 -1 2 C-0.67 1.34 -0.34 0.68 0 0 Z M3 8 C2.67 8.33 2.34 8.66 2 9 C2.28730055 11.33944736 2.61936779 13.6739143 3 16 C4.98 15.67 6.96 15.34 9 15 C9 13.02 9 11.04 9 9 C7.0085944 8.61866701 5.00720923 8.28674418 3 8 Z M10 8 C10 10.31 10 12.62 10 15 C10.33 15 10.66 15 11 15 C11 12.69 11 10.38 11 8 C10.67 8 10.34 8 10 8 Z M10 21 C11 25 11 25 11 25 Z " fill="#000000" transform="translate(219,60)"/>
<path d="M0 0 C2.35188566 3.91980944 1.94553006 6.65056172 1 11 C0.7763932 13.9254644 0.7763932 13.9254644 2 16 C2.25765477 20.6377859 2.12087964 22.75824072 0 27 C-5.94 26.67 -11.88 26.34 -18 26 C-18 17.42 -18 8.84 -18 0 C-3.05494505 -1.24542125 -3.05494505 -1.24542125 0 0 Z M-12 5 C-12 6.98 -12 8.96 -12 11 C-11.67 11 -11.34 11 -11 11 C-11 9.02 -11 7.04 -11 5 C-11.33 5 -11.66 5 -12 5 Z M-10 5 C-10 5.99 -10 6.98 -10 8 C-9.01 8 -8.02 8 -7 8 C-7 7.01 -7 6.02 -7 5 C-7.99 5 -8.98 5 -10 5 Z M-6 6 C-5 10 -5 10 -5 10 Z M-12 16 C-12 17.65 -12 19.3 -12 21 C-11.67 21 -11.34 21 -11 21 C-11 19.35 -11 17.7 -11 16 C-11.33 16 -11.66 16 -12 16 Z M-5 17 C-4 20 -4 20 -4 20 Z M-10 18 C-6 19 -6 19 -6 19 Z " fill="#000000" transform="translate(129,17)"/>
<path d="M0 0 C1.99954746 -0.04254356 4.00041636 -0.04080783 6 0 C7 1 7 1 7.11352539 3.59204102 C7.10828857 4.71795654 7.10305176 5.84387207 7.09765625 7.00390625 C7.09443359 8.21884766 7.09121094 9.43378906 7.08789062 10.68554688 C7.07951172 11.96494141 7.07113281 13.24433594 7.0625 14.5625 C7.05798828 15.84576172 7.05347656 17.12902344 7.04882812 18.45117188 C7.03699545 21.63416022 7.02051068 24.81705762 7 28 C5.88753906 28.14179687 4.77507812 28.28359375 3.62890625 28.4296875 C0.15067027 28.76761791 0.15067027 28.76761791 -2.0625 30.125 C-4.9809512 31.44301022 -6.97465234 30.83679829 -10 30 C-12.55826443 28.08130168 -13.75052919 25.91198981 -15 23 C-15.68575947 18.09602241 -15.74079295 14.20996181 -13.125 9.9375 C-9.45513491 6.59144653 -6.89415859 6.8220306 -2 7 C-1.67 7.33 -1.34 7.66 -1 8 C-0.67 5.36 -0.34 2.72 0 0 Z M-9 15 C-8.67 17.31 -8.34 19.62 -8 22 C-7.34 21.67 -6.68 21.34 -6 21 C-4.33178677 21.32550502 -2.66500443 21.65846063 -1 22 C0.33648017 20.88898816 0.33648017 20.88898816 0.125 18.0625 C0.21325664 15.08454272 0.21325664 15.08454272 -1 13 C-3.94885691 13 -6.3685612 13.6842806 -9 15 Z " fill="#000000" transform="translate(172,54)"/>
<path d="M0 0 C2.31 0 4.62 0 7 0 C6.35403956 5.31747142 3.7989999 7.8605205 0.30078125 11.71875 C-1.3086637 13.94712865 -1.3086637 13.94712865 -0.4375 16.5234375 C1.50253978 19.86578864 3.95822473 22.37380263 6.63671875 25.1328125 C7.08660156 25.74898437 7.53648437 26.36515625 8 27 C7.67 27.99 7.34 28.98 7 30 C4.69 30 2.38 30 0 30 C-0.268125 29.360625 -0.53625 28.72125 -0.8125 28.0625 C-1.88667752 25.66868314 -1.88667752 25.66868314 -5 25 C-5.625 23 -5.625 23 -6 21 C-6.33 20.67 -6.66 20.34 -7 20 C-7.33 22.64 -7.66 25.28 -8 28 C-9.98 28 -11.96 28 -14 28 C-14 19.42 -14 10.84 -14 2 C-12.02 2 -10.04 2 -8 2 C-7.67 4.64 -7.34 7.28 -7 10 C-7 7.36 -7 4.72 -7 2 C-6.67 2 -6.34 2 -6 2 C-5.67 3.65 -5.34 5.3 -5 7 C-2.47411298 4.63707344 -1.11179163 3.33537489 0 0 Z " fill="#000000" transform="translate(125,54)"/>
<path d="M0 0 C3.96 0 7.92 0 12 0 C15.24900602 4.97504047 16.49940808 7.88225104 16 14 C13.69 14.33 11.38 14.66 9 15 C11.31 15 13.62 15 16 15 C15.34 17.31 14.68 19.62 14 22 C9.37269289 23.0448758 4.71146122 23.51756279 0 24 C-5.52380771 14.67260152 -5.52380771 14.67260152 -5 9.625 C-4.07367615 6.26707606 -3.32158438 4.51504974 -1 2 C-0.67 1.34 -0.34 0.68 0 0 Z M4 8 C8 9 8 9 8 9 Z M2 14 C3 16 3 16 3 16 Z " fill="#000000" transform="translate(229,21)"/>
<path d="M0 0 C3.526875 -0.12375 3.526875 -0.12375 7.125 -0.25 C7.85348145 -0.28641602 8.58196289 -0.32283203 9.33251953 -0.36035156 C14.41351735 -0.44579281 17.05361799 0.93189292 21 4 C21.66 4.33 22.32 4.66 23 5 C22.67 5.99 22.34 6.98 22 8 C21.77548542 10.22574335 21.59217122 12.45581519 21.4375 14.6875 C21.35371094 15.86699219 21.26992187 17.04648437 21.18359375 18.26171875 C21.09271484 19.61716797 21.09271484 19.61716797 21 21 C18.03 21 15.06 21 12 21 C11.67 16.71 11.34 12.42 11 8 C10.67 8 10.34 8 10 8 C9.67 12.29 9.34 16.58 9 21 C6.03 21 3.06 21 0 21 C0 14.07 0 7.14 0 0 Z " fill="#000000" transform="translate(156,22)"/>
<path d="M0 0 C4.95 0 9.9 0 15 0 C17.21854707 4.62197306 18.38281159 7.76824163 18 13 C15.69 13.33 13.38 13.66 11 14 C12.98 14 14.96 14 17 14 C16.35455571 17.48539917 14.89865603 20.02819057 13 23 C2.10099066 21.89292024 2.10099066 21.89292024 -1.1875 18.375 C-3.31608608 14.41142593 -3.80337695 11.35999368 -3 7 C-2.17448603 4.51876766 -1.17498409 2.34996818 0 0 Z M4 6 C5 8 5 8 5 8 Z M9 6 C9.66 6.66 10.32 7.32 11 8 C11 7.34 11 6.68 11 6 C10.34 6 9.68 6 9 6 Z M3 13 C3.66 13.66 4.32 14.32 5 15 C5 14.34 5 13.68 5 13 C4.34 13 3.68 13 3 13 Z " fill="#000000" transform="translate(136,22)"/>
<path d="M0 0 C1.29744141 0.01353516 1.29744141 0.01353516 2.62109375 0.02734375 C3.26175781 0.03894531 3.90242188 0.05054688 4.5625 0.0625 C4.81 0.701875 5.0575 1.34125 5.3125 2 C6.52871634 4.55269039 6.52871634 4.55269039 10.5625 5.0625 C9.9025 10.6725 9.2425 16.2825 8.5625 22.0625 C5.5925 22.0625 2.6225 22.0625 -0.4375 22.0625 C-0.46328125 21.14726563 -0.4890625 20.23203125 -0.515625 19.2890625 C-0.57234375 18.10054687 -0.6290625 16.91203125 -0.6875 15.6875 C-0.73390625 14.50414063 -0.7803125 13.32078125 -0.828125 12.1015625 C-1.02921875 11.09867188 -1.2303125 10.09578125 -1.4375 9.0625 C-2.7575 8.4025 -4.0775 7.7425 -5.4375 7.0625 C-5.4375 12.0125 -5.4375 16.9625 -5.4375 22.0625 C-7.7475 22.0625 -10.0575 22.0625 -12.4375 22.0625 C-12.4375 15.1325 -12.4375 8.2025 -12.4375 1.0625 C-7.98928945 0.42704135 -4.36584041 -0.05980603 0 0 Z " fill="#000000" transform="translate(204.4375,59.9375)"/>
<path d="M0 0 C1.09054688 0.02320313 2.18109375 0.04640625 3.3046875 0.0703125 C4.40039062 0.08835938 5.49609375 0.10640625 6.625 0.125 C7.46804687 0.14820313 8.31109375 0.17140625 9.1796875 0.1953125 C12.7968675 5.50804563 14.38942418 9.73555351 13.1796875 16.1953125 C11.2421875 19.6328125 11.2421875 19.6328125 9.1796875 22.1953125 C8.8496875 22.8553125 8.5196875 23.5153125 8.1796875 24.1953125 C1.35981172 25.53692741 1.35981172 25.53692741 -2.1953125 24.5078125 C-4.15813359 22.92245701 -4.84080346 21.50415525 -5.8203125 19.1953125 C-6.4803125 18.2053125 -7.1403125 17.2153125 -7.8203125 16.1953125 C-8.44191253 11.88447595 -8.2970923 8.21388752 -6.4453125 4.2578125 C-3.26903842 0.2263877 -3.26903842 0.2263877 0 0 Z M2.1796875 6.1953125 C3.1796875 8.1953125 3.1796875 8.1953125 3.1796875 8.1953125 Z M-1.8203125 9.1953125 C-1.8203125 10.8453125 -1.8203125 12.4953125 -1.8203125 14.1953125 C-1.4903125 14.1953125 -1.1603125 14.1953125 -0.8203125 14.1953125 C-0.8203125 12.5453125 -0.8203125 10.8953125 -0.8203125 9.1953125 C-1.1503125 9.1953125 -1.4803125 9.1953125 -1.8203125 9.1953125 Z M0.1796875 9.1953125 C0.1796875 10.8453125 0.1796875 12.4953125 0.1796875 14.1953125 C2.1596875 14.8553125 4.1396875 15.5153125 6.1796875 16.1953125 C6.5096875 13.8853125 6.8396875 11.5753125 7.1796875 9.1953125 C4.5130456 7.86199155 3.01288447 8.52429217 0.1796875 9.1953125 Z M0.1796875 23.1953125 C4.1796875 24.1953125 4.1796875 24.1953125 4.1796875 24.1953125 Z " fill="#000000" transform="translate(141.8203125,59.8046875)"/>
<path d="M0 0 C2.64 0 5.28 0 8 0 C8.33 2.64 8.66 5.28 9 8 C9.66 6.68 10.32 5.36 11 4 C13.64 4 16.28 4 19 4 C18.67566492 9.35152885 15.50295176 12.28280043 12 16 C13.26492063 18.73080995 14.62011602 20.88562667 16.625 23.125 C19 26 19 26 19 28 C11.61538462 27.63076923 11.61538462 27.63076923 8.5 24.4375 C7.7575 23.2309375 7.7575 23.2309375 7 22 C6.67 23.65 6.34 25.3 6 27 C4.02 27 2.04 27 0 27 C0 18.09 0 9.18 0 0 Z " fill="#000000" transform="translate(205,16)"/>
<path d="M0 0 C1.98 0 3.96 0 6 0 C6 8.91 6 17.82 6 27 C4.02 27 2.04 27 0 27 C0 18.09 0 9.18 0 0 Z " fill="#000000" transform="translate(248,16)"/>
<path d="M0 0 C1.88372214 3.17596839 2.20001885 5.31969081 1.9765625 8.984375 C1.925 9.91894531 1.8734375 10.85351562 1.8203125 11.81640625 C1.75585938 12.78449219 1.69140625 13.75257812 1.625 14.75 C1.56828125 15.73355469 1.5115625 16.71710937 1.453125 17.73046875 C1.31192448 20.154411 1.16054205 22.57727459 1 25 C0.67 25 0.34 25 0 25 C-0.02505615 24.42967041 -0.0501123 23.85934082 -0.07592773 23.27172852 C-0.19156549 20.70173843 -0.31443624 18.13214473 -0.4375 15.5625 C-0.47681641 14.66466797 -0.51613281 13.76683594 -0.55664062 12.84179688 C-0.59853516 11.98779297 -0.64042969 11.13378906 -0.68359375 10.25390625 C-0.72025146 9.46314697 -0.75690918 8.6723877 -0.79467773 7.85766602 C-0.80563257 5.98598559 -0.80563257 5.98598559 -2 5 C-5.45821402 4.74996036 -5.45821402 4.74996036 -9 5 C-12.08643773 8.08643773 -11.35865008 11.79759417 -11.4140625 15.9453125 C-11.43342865 16.8303244 -11.4527948 17.7153363 -11.4727478 18.62716675 C-11.53262723 21.45967916 -11.57896213 24.29223203 -11.625 27.125 C-11.66317211 29.04298668 -11.70222338 30.96095607 -11.7421875 32.87890625 C-11.83833555 37.58579748 -11.92233542 42.29276896 -12 47 C-12.33 47 -12.66 47 -13 47 C-13.33 39.08 -13.66 31.16 -14 23 C-14.33 23 -14.66 23 -15 23 C-15.05434116 20.4580411 -15.0938339 17.91726318 -15.125 15.375 C-15.14175781 14.66214844 -15.15851562 13.94929688 -15.17578125 13.21484375 C-15.21684602 8.7387836 -14.69086567 5.22050722 -13 1 C-8.60563789 0.14256349 -4.47427924 -0.08948558 0 0 Z " fill="#0C0561" transform="translate(33,4)"/>
<path d="M0 0 C0.99 0.33 1.98 0.66 3 1 C1.95125002 3.62187494 1.35068687 4.79371361 -1.125 6.25 C-1.74375 6.4975 -2.3625 6.745 -3 7 C-3 7.66 -3 8.32 -3 9 C-3.66 9 -4.32 9 -5 9 C-4.50628906 9.54269531 -4.01257812 10.08539063 -3.50390625 10.64453125 C-2.86324219 11.35996094 -2.22257812 12.07539062 -1.5625 12.8125 C-0.60537109 13.87404297 -0.60537109 13.87404297 0.37109375 14.95703125 C2 17 2 17 3 20 C-0.66060821 19.41463247 -2.54535164 17.916761 -5.25 15.4375 C-5.95640625 14.79683594 -6.6628125 14.15617187 -7.390625 13.49609375 C-7.92171875 13.00238281 -8.4528125 12.50867187 -9 12 C-9 14.64 -9 17.28 -9 20 C-9.99 20 -10.98 20 -12 20 C-12 13.73 -12 7.46 -12 1 C-10.68 1 -9.36 1 -8 1 C-7.67 2.98 -7.34 4.96 -7 7 C-4.69 4.69 -2.38 2.38 0 0 Z " fill="#D3DAEB" transform="translate(56,42)"/>
<path d="M0 0 C2.31 0 4.62 0 7 0 C7 6.93 7 13.86 7 21 C4.69 21 2.38 21 0 21 C0 14.07 0 7.14 0 0 Z " fill="#000000" transform="translate(182,61)"/>
<path d="M0 0 C0.99 0 1.98 0 3 0 C3 6.27 3 12.54 3 19 C2.01 19 1.02 19 0 19 C0 12.73 0 6.46 0 0 Z " fill="#EEF3FE" transform="translate(44,43)"/>
<path d="M0 0 C2 1 2 1 4 4 C4.13525391 6.26831055 4.13525391 6.26831055 3.9765625 8.88671875 C3.925 9.82451172 3.8734375 10.76230469 3.8203125 11.72851562 C3.75585938 12.70498047 3.69140625 13.68144531 3.625 14.6875 C3.56828125 15.67556641 3.5115625 16.66363281 3.453125 17.68164062 C3.31166481 20.12182885 3.16025726 22.56098591 3 25 C2.67 25 2.34 25 2 25 C1.67 18.73 1.34 12.46 1 6 C-1.31 5.34 -3.62 4.68 -6 4 C-4.68 3.67 -3.36 3.34 -2 3 C-2 2.34 -2 1.68 -2 1 C-1.34 0.67 -0.68 0.34 0 0 Z " fill="#3A367F" transform="translate(31,4)"/>
<path d="M0 0 C2.3431213 0.25561323 4.67843403 0.59270772 7 1 C7.33 1.66 7.66 2.32 8 3 C7.01 3 6.02 3 5 3 C4.67 4.32 4.34 5.64 4 7 C3.01 7 2.02 7 1 7 C0.67 6.34 0.34 5.68 0 5 C-0.33 5.99 -0.66 6.98 -1 8 C-1.66 7.67 -2.32 7.34 -3 7 C-2.01 4.69 -1.02 2.38 0 0 Z " fill="#01015E" transform="translate(61,38)"/>
<path d="M0 0 C0.99 0.33 1.98 0.66 3 1 C1.60746468 4.48133831 0.36823784 5.47886033 -3 7 C-3.33 7.66 -3.66 8.32 -4 9 C-4.99 8.34 -5.98 7.68 -7 7 C-4.69 4.69 -2.38 2.38 0 0 Z " fill="#C7CEE7" transform="translate(56,42)"/>
<path d="M0 0 C0.33 0 0.66 0 1 0 C1 8.91 1 17.82 1 27 C-3.0227361 18.95452781 -1.10518999 8.74284222 0 0 Z " fill="#000000" transform="translate(246,16)"/>
<path d="M0 0 C-0.33 0.99 -0.66 1.98 -1 3 C-4.3 3 -7.6 3 -11 3 C-11 2.34 -11 1.68 -11 1 C-7.32589215 -0.17571451 -3.83070817 -0.07366746 0 0 Z " fill="#28246F" transform="translate(57,72)"/>
<path d="M0 0 C0.33 0 0.66 0 1 0 C1 9.24 1 18.48 1 28 C0.67 28 0.34 28 0 28 C0 18.76 0 9.52 0 0 Z " fill="#000000" transform="translate(180,54)"/>
<path d="M0 0 C0.33 0 0.66 0 1 0 C1 8.91 1 17.82 1 27 C0.67 27 0.34 27 0 27 C0 18.09 0 9.18 0 0 Z " fill="#000000" transform="translate(255,16)"/>
<path d="M0 0 C0.33 0 0.66 0 1 0 C1 8.58 1 17.16 1 26 C0.67 26 0.34 26 0 26 C0 17.42 0 8.84 0 0 Z " fill="#000000" transform="translate(109,56)"/>
<path d="M0 0 C0.33 0 0.66 0 1 0 C1 8.58 1 17.16 1 26 C0.67 26 0.34 26 0 26 C0 17.42 0 8.84 0 0 Z " fill="#000000" transform="translate(109,17)"/>
<path d="M0 0 C0.33 0 0.66 0 1 0 C1 7.92 1 15.84 1 24 C0.67 24 0.34 24 0 24 C0 16.08 0 8.16 0 0 Z " fill="#000000" transform="translate(238,61)"/>
<path d="M0 0 C0.33 0 0.66 0 1 0 C1 7.92 1 15.84 1 24 C0.67 24 0.34 24 0 24 C0 16.08 0 8.16 0 0 Z " fill="#000000" transform="translate(202,22)"/>
<path d="M0 0 C3.36720387 1.39332574 4.9859524 2.9789286 7 6 C5.35 5.67 3.7 5.34 2 5 C1.34 5.99 0.68 6.98 0 8 C0 5.36 0 2.72 0 0 Z " fill="#3A3C7C" transform="translate(47,54)"/>
<path d="M0 0 C0 0.99 0 1.98 0 3 C-3.69541586 3.95024979 -6.30458414 3.95024979 -10 3 C-9.67 2.34 -9.34 1.68 -9 1 C-5.93090555 0.33280556 -3.14213983 0 0 0 Z " fill="#08025B" transform="translate(29,4)"/>
<path d="M0 0 C0.33 0 0.66 0 1 0 C1 6.93 1 13.86 1 21 C0.67 21 0.34 21 0 21 C0 14.07 0 7.14 0 0 Z " fill="#000000" transform="translate(190,61)"/>
<path d="M0 0 C0.66 0.33 1.32 0.66 2 1 C0.60667426 4.36720387 -0.9789286 5.9859524 -4 8 C-4 6.68 -4 5.36 -4 4 C-3.34 3.67 -2.68 3.34 -2 3 C-2 2.34 -2 1.68 -2 1 C-1.34 0.67 -0.68 0.34 0 0 Z " fill="#050558" transform="translate(54,40)"/>
<path d="M0 0 C1.32 0 2.64 0 4 0 C2.55746343 3.36591866 0.66735273 5.51047079 -2 8 C-1.125 2.25 -1.125 2.25 0 0 Z " fill="#110A6F" transform="translate(20,7)"/>
<path d="M0 0 C2.375 0.25 2.375 0.25 5 1 C6.3125 3.0625 6.3125 3.0625 7 5 C4.11424181 4.60196439 3.17810487 4.20990931 1.25 1.9375 C0.8375 1.298125 0.425 0.65875 0 0 Z " fill="#E5ECFB" transform="translate(52,57)"/>
<path d="M0 0 C0.66 0 1.32 0 2 0 C2.33 1.65 2.66 3.3 3 5 C2.01 5.33 1.02 5.66 0 6 C-0.66 4.68 -1.32 3.36 -2 2 C-1.34 2 -0.68 2 0 2 C0 1.34 0 0.68 0 0 Z " fill="#252578" transform="translate(53,49)"/>
<path d="M0 0 C5.61 0 11.22 0 17 0 C17 0.33 17 0.66 17 1 C11.39 1 5.78 1 0 1 C0 0.67 0 0.34 0 0 Z " fill="#050057" transform="translate(43,96)"/>
<path d="M0 0 C0.66 0 1.32 0 2 0 C3.38232443 1.62626404 4.71937515 3.2925002 6 5 C5.34 5.66 4.68 6.32 4 7 C2 5.1875 2 5.1875 0 3 C0 2.01 0 1.02 0 0 Z " fill="#0A0858" transform="translate(34,64)"/>
<path d="M0 0 C0.33 0 0.66 0 1 0 C1 5.28 1 10.56 1 16 C0.67 16 0.34 16 0 16 C0 10.72 0 5.44 0 0 Z " fill="#040070" transform="translate(7,45)"/>
<path d="M0 0 C0.33 0 0.66 0 1 0 C1 5.28 1 10.56 1 16 C0.67 16 0.34 16 0 16 C0 10.72 0 5.44 0 0 Z " fill="#080444" transform="translate(16,11)"/>
<path d="M0 0 C4.95 0 9.9 0 15 0 C15 0.33 15 0.66 15 1 C10.05 1 5.1 1 0 1 C0 0.67 0 0.34 0 0 Z " fill="#000000" transform="translate(112,44)"/>
<path d="M0 0 C4.62 0 9.24 0 14 0 C14 0.33 14 0.66 14 1 C9.38 1 4.76 1 0 1 C0 0.67 0 0.34 0 0 Z " fill="#000000" transform="translate(111,15)"/>
<path d="M0 0 C0.33 0 0.66 0 1 0 C1 4.29 1 8.58 1 13 C0.67 13 0.34 13 0 13 C0 8.71 0 4.42 0 0 Z " fill="#000000" transform="translate(200,68)"/>
<path d="M0 0 C0.33 0 0.66 0 1 0 C1 1.98 1 3.96 1 6 C-1.64 5.67 -4.28 5.34 -7 5 C-7 4.67 -7 4.34 -7 4 C-4.69 4 -2.38 4 0 4 C0 2.68 0 1.36 0 0 Z " fill="#000000" transform="translate(170,55)"/>
<path d="M0 0 C0.66 0.99 1.32 1.98 2 3 C1.34 4.32 0.68 5.64 0 7 C-1.33332095 4.3333581 -0.67102033 2.83319697 0 0 Z " fill="#000000" transform="translate(132,22)"/>
<path d="M0 0 C0 0.99 0 1.98 0 3 C-1.98 3.99 -1.98 3.99 -4 5 C-2.68 3.35 -1.36 1.7 0 0 Z " fill="#030142" transform="translate(83,81)"/>
<path d="M0 0 C0.33 0 0.66 0 1 0 C1 2.97 1 5.94 1 9 C0.67 9 0.34 9 0 9 C0 6.03 0 3.06 0 0 Z " fill="#000000" transform="translate(132,67)"/>
<path d="M0 0 C0.33 0 0.66 0 1 0 C1 2.64 1 5.28 1 8 C-0.42944945 5.64561267 -1.08661261 4.51967567 -0.625 1.75 C-0.41875 1.1725 -0.2125 0.595 0 0 Z " fill="#000000" transform="translate(154,35)"/>
<path d="M0 0 C2.64 0 5.28 0 8 0 C8 0.33 8 0.66 8 1 C5.36 1 2.72 1 0 1 C0 0.67 0 0.34 0 0 Z " fill="#000000" transform="translate(222,93)"/>
<path d="M0 0 C1.32 1.32 2.64 2.64 4 4 C3.01 4 2.02 4 1 4 C0.67 2.68 0.34 1.36 0 0 Z " fill="#000000" transform="translate(216,79)"/>
<path d="M0 0 C0.66 0.66 1.32 1.32 2 2 C1.625 4.625 1.625 4.625 1 7 C0.67 7 0.34 7 0 7 C0 4.69 0 2.38 0 0 Z " fill="#000000" transform="translate(118,75)"/>
<path d="M0 0 C0.33 0 0.66 0 1 0 C1 2.64 1 5.28 1 8 C0.67 8 0.34 8 0 8 C0 5.36 0 2.72 0 0 Z " fill="#070074" transform="translate(94,54)"/>
<path d="M0 0 C0.33 0 0.66 0 1 0 C1 2.64 1 5.28 1 8 C0.67 8 0.34 8 0 8 C0 5.36 0 2.72 0 0 Z " fill="#020066" transform="translate(94,43)"/>
<path d="M0 0 C0.66 1.32 1.32 2.64 2 4 C1.34 4.66 0.68 5.32 0 6 C0 4.02 0 2.04 0 0 Z " fill="#000000" transform="translate(178,37)"/>
<path d="M0 0 C0.33 0 0.66 0 1 0 C1 1.98 1 3.96 1 6 C-0.0625 4.125 -0.0625 4.125 -1 2 C-0.67 1.34 -0.34 0.68 0 0 Z " fill="#000000" transform="translate(154,23)"/>
<path d="M0 0 C2.31 0 4.62 0 7 0 C7 0.33 7 0.66 7 1 C4.69 1 2.38 1 0 1 C0 0.67 0 0.34 0 0 Z " fill="#000000" transform="translate(221,59)"/>
<path d="M0 0 C2.31 0 4.62 0 7 0 C7 0.33 7 0.66 7 1 C4.69 1 2.38 1 0 1 C0 0.67 0 0.34 0 0 Z " fill="#000000" transform="translate(141,59)"/>
<path d="M0 0 C2.31 0 4.62 0 7 0 C7 0.33 7 0.66 7 1 C4.69 1 2.38 1 0 1 C0 0.67 0 0.34 0 0 Z " fill="#000000" transform="translate(231,20)"/>
<path d="M0 0 C2.31 0 4.62 0 7 0 C7 0.33 7 0.66 7 1 C4.69 1 2.38 1 0 1 C0 0.67 0 0.34 0 0 Z " fill="#000000" transform="translate(140,20)"/>
<path d="M0 0 C2.31 0 4.62 0 7 0 C7 0.33 7 0.66 7 1 C4.69 1 2.38 1 0 1 C0 0.67 0 0.34 0 0 Z " fill="#010045" transform="translate(53,9)"/>
<path d="M0 0 C2.31 0 4.62 0 7 0 C7 0.33 7 0.66 7 1 C4.69 1 2.38 1 0 1 C0 0.67 0 0.34 0 0 Z " fill="#02024A" transform="translate(42,9)"/>
<path d="M0 0 C1.98 0 3.96 0 6 0 C6 0.33 6 0.66 6 1 C4.02 1 2.04 1 0 1 C0 0.67 0 0.34 0 0 Z " fill="#000000" transform="translate(192,83)"/>
<path d="M0 0 C1.98 0 3.96 0 6 0 C6 0.33 6 0.66 6 1 C4.02 1 2.04 1 0 1 C0 0.67 0 0.34 0 0 Z " fill="#000000" transform="translate(182,83)"/>
<path d="M0 0 C1.98 0 3.96 0 6 0 C6 0.33 6 0.66 6 1 C4.02 1 2.04 1 0 1 C0 0.67 0 0.34 0 0 Z " fill="#000000" transform="translate(172,83)"/>
<path d="M0 0 C1.98 0 3.96 0 6 0 C6 0.33 6 0.66 6 1 C4.02 1 2.04 1 0 1 C0 0.67 0 0.34 0 0 Z " fill="#000000" transform="translate(111,83)"/>
<path d="M0 0 C0.99 1.485 0.99 1.485 2 3 C1.34 3.66 0.68 4.32 0 5 C0 3.35 0 1.7 0 0 Z " fill="#000000" transform="translate(214,76)"/>
<path d="M0 0 C0.33 0 0.66 0 1 0 C1 1.98 1 3.96 1 6 C0.67 6 0.34 6 0 6 C0 4.02 0 2.04 0 0 Z " fill="#000000" transform="translate(170,69)"/>
<path d="M0 0 C1.98 0 3.96 0 6 0 C6 0.33 6 0.66 6 1 C4.02 1 2.04 1 0 1 C0 0.67 0 0.34 0 0 Z " fill="#000000" transform="translate(201,59)"/>
<path d="M0 0 C1.98 0 3.96 0 6 0 C6 0.33 6 0.66 6 1 C4.02 1 2.04 1 0 1 C0 0.67 0 0.34 0 0 Z " fill="#000000" transform="translate(111,54)"/>
<path d="M0 0 C1.98 0 3.96 0 6 0 C6 0.33 6 0.66 6 1 C4.02 1 2.04 1 0 1 C0 0.67 0 0.34 0 0 Z " fill="#000000" transform="translate(232,45)"/>
<path d="M0 0 C1.98 0 3.96 0 6 0 C6 0.33 6 0.66 6 1 C4.02 1 2.04 1 0 1 C0 0.67 0 0.34 0 0 Z " fill="#000000" transform="translate(216,44)"/>
<path d="M0 0 C0.33 0 0.66 0 1 0 C1 1.98 1 3.96 1 6 C0.67 6 0.34 6 0 6 C0 4.02 0 2.04 0 0 Z " fill="#000000" transform="translate(222,30)"/>
<path d="M0 0 C1.98 0 3.96 0 6 0 C6 0.33 6 0.66 6 1 C4.02 1 2.04 1 0 1 C0 0.67 0 0.34 0 0 Z " fill="#000000" transform="translate(165,20)"/>
<path d="M0 0 C1.98 0 3.96 0 6 0 C6 0.33 6 0.66 6 1 C4.02 1 2.04 1 0 1 C0 0.67 0 0.34 0 0 Z " fill="#000000" transform="translate(248,14)"/>
<path d="M0 0 C1.65 0 3.3 0 5 0 C5 0.33 5 0.66 5 1 C3.35 1 1.7 1 0 1 C0 0.67 0 0.34 0 0 Z " fill="#000000" transform="translate(207,83)"/>
<path d="M0 0 C0.33 0 0.66 0 1 0 C1 1.65 1 3.3 1 5 C0.67 5 0.34 5 0 5 C0 3.35 0 1.7 0 0 Z " fill="#000000" transform="translate(222,69)"/>
<path d="M0 0 C0.33 0 0.66 0 1 0 C1 1.65 1 3.3 1 5 C0.67 5 0.34 5 0 5 C0 3.35 0 1.7 0 0 Z " fill="#000000" transform="translate(164,69)"/>
<path d="M0 0 C0.33 0 0.66 0 1 0 C1 1.65 1 3.3 1 5 C0.67 5 0.34 5 0 5 C0 3.35 0 1.7 0 0 Z " fill="#000000" transform="translate(147,69)"/>
<path d="M0 0 C1.65 0 3.3 0 5 0 C5 0.33 5 0.66 5 1 C3.35 1 1.7 1 0 1 C0 0.67 0 0.34 0 0 Z " fill="#000000" transform="translate(231,59)"/>
<path d="M0 0 C1.65 0 3.3 0 5 0 C5 0.33 5 0.66 5 1 C3.35 1 1.7 1 0 1 C0 0.67 0 0.34 0 0 Z " fill="#000000" transform="translate(193,59)"/>
<path d="M0 0 C1.65 0 3.3 0 5 0 C5 0.33 5 0.66 5 1 C3.35 1 1.7 1 0 1 C0 0.67 0 0.34 0 0 Z " fill="#000000" transform="translate(173,52)"/>
<path d="M0 0 C1.65 0 3.3 0 5 0 C5 0.33 5 0.66 5 1 C3.35 1 1.7 1 0 1 C0 0.67 0 0.34 0 0 Z " fill="#000000" transform="translate(141,45)"/>
<path d="M0 0 C1.65 0 3.3 0 5 0 C5 0.33 5 0.66 5 1 C3.35 1 1.7 1 0 1 C0 0.67 0 0.34 0 0 Z " fill="#000000" transform="translate(249,44)"/>
<path d="M0 0 C1.65 0 3.3 0 5 0 C5 0.33 5 0.66 5 1 C3.35 1 1.7 1 0 1 C0 0.67 0 0.34 0 0 Z " fill="#000000" transform="translate(205,44)"/>
<path d="M0 0 C1.65 0 3.3 0 5 0 C5 0.33 5 0.66 5 1 C3.35 1 1.7 1 0 1 C0 0.67 0 0.34 0 0 Z " fill="#000000" transform="translate(171,44)"/>
<path d="M0 0 C1.65 0 3.3 0 5 0 C5 0.33 5 0.66 5 1 C3.35 1 1.7 1 0 1 C0 0.67 0 0.34 0 0 Z " fill="#000000" transform="translate(157,44)"/>
<path d="M0 0 C0.99 1.485 0.99 1.485 2 3 C1.01 3.495 1.01 3.495 0 4 C0 2.68 0 1.36 0 0 Z " fill="#000000" transform="translate(212,39)"/>
<path d="M0 0 C0.33 1.32 0.66 2.64 1 4 C0.34 3.01 -0.32 2.02 -1 1 C-0.67 0.67 -0.34 0.34 0 0 Z " fill="#000000" transform="translate(131,29)"/>
<path d="M0 0 C1.65 0 3.3 0 5 0 C5 0.33 5 0.66 5 1 C3.35 1 1.7 1 0 1 C0 0.67 0 0.34 0 0 Z " fill="#000000" transform="translate(195,20)"/>
<path d="M0 0 C1.65 0 3.3 0 5 0 C5 0.33 5 0.66 5 1 C3.35 1 1.7 1 0 1 C0 0.67 0 0.34 0 0 Z " fill="#000000" transform="translate(157,20)"/>
<path d="M0 0 C1.65 0 3.3 0 5 0 C5 0.33 5 0.66 5 1 C3.35 1 1.7 1 0 1 C0 0.67 0 0.34 0 0 Z " fill="#000000" transform="translate(205,14)"/>
<path d="M0 0 C4 1 4 1 4 1 Z " fill="#03005A" transform="translate(39,95)"/>
<path d="M0 0 C0.99 0.495 0.99 0.495 2 1 C1.67 1.66 1.34 2.32 1 3 C0.67 2.01 0.34 1.02 0 0 Z " fill="#000000" transform="translate(130,76)"/>
<path d="M0 0 C0.66 0 1.32 0 2 0 C2 0.66 2 1.32 2 2 C1.34 2 0.68 2 0 2 C0 1.34 0 0.68 0 0 Z " fill="#000000" transform="translate(155,65)"/>
<path d="M0 0 C1 4 1 4 1 4 Z " fill="#010172" transform="translate(8,61)"/>
<path d="M0 0 C0.99 1.485 0.99 1.485 2 3 C1.34 3 0.68 3 0 3 C0 2.01 0 1.02 0 0 Z " fill="#000000" transform="translate(132,37)"/>
<path d="M0 0 C0.99 0.495 0.99 0.495 2 1 C1.67 1.66 1.34 2.32 1 3 C0.67 2.01 0.34 1.02 0 0 Z " fill="#000000" transform="translate(221,37)"/>
<path d="M0 0 C1 4 1 4 1 4 Z " fill="#000000" transform="translate(186,31)"/>
<path d="M0 0 C0 3 0 3 0 3 Z " fill="#000000" transform="translate(220,28)"/>
<path d="M0 0 C4 1 4 1 4 1 Z " fill="#04033E" transform="translate(60,10)"/>
<path d="M0 0 C4 1 4 1 4 1 Z " fill="#00060C" transform="translate(49,8)"/>
<path d="M0 0 C3 1 3 1 3 1 Z " fill="#04043E" transform="translate(60,95)"/>
<path d="M0 0 C3 1 3 1 3 1 Z " fill="#04005F" transform="translate(36,94)"/>
<path d="" fill="#000000" transform="translate(0,0)"/>
<path d="M0 0 C0.66 0.66 1.32 1.32 2 2 C1.34 2 0.68 2 0 2 C0 1.34 0 0.68 0 0 Z " fill="#000000" transform="translate(136,80)"/>
<path d="M0 0 C0.66 0.66 1.32 1.32 2 2 C1.34 2 0.68 2 0 2 C0 1.34 0 0.68 0 0 Z " fill="#000000" transform="translate(155,76)"/>
<path d="" fill="#06053A" transform="translate(0,0)"/>
<path d="" fill="#060543" transform="translate(0,0)"/>
<path d="" fill="#000081" transform="translate(0,0)"/>
<path d="" fill="#080535" transform="translate(0,0)"/>
<path d="" fill="#000000" transform="translate(0,0)"/>
<path d="" fill="#000000" transform="translate(0,0)"/>
<path d="M0 0 C3 1 3 1 3 1 Z " fill="#000000" transform="translate(138,44)"/>
<path d="" fill="#04014F" transform="translate(0,0)"/>
<path d="" fill="#06034D" transform="translate(0,0)"/>
<path d="" fill="#030064" transform="translate(0,0)"/>
<path d="" fill="#060355" transform="translate(0,0)"/>
<path d="" fill="#060634" transform="translate(0,0)"/>
<path d="" fill="#000000" transform="translate(0,0)"/>
<path d="M0 0 C3 1 3 1 3 1 Z " fill="#040070" transform="translate(23,3)"/>
<path d="M0 0 C3 1 3 1 3 1 Z " fill="#010315" transform="translate(26,2)"/>
<path d="M0 0 C2 1 2 1 2 1 Z " fill="#04005A" transform="translate(34,93)"/>
<path d="M0 0 C2 1 2 1 2 1 Z " fill="#000000" transform="translate(220,92)"/>
<path d="" fill="#000000" transform="translate(0,0)"/>
<path d="" fill="#000000" transform="translate(0,0)"/>
<path d="" fill="#000000" transform="translate(0,0)"/>
<path d="" fill="#000000" transform="translate(0,0)"/>
<path d="" fill="#000646" transform="translate(0,0)"/>
<path d="" fill="#000000" transform="translate(0,0)"/>
<path d="" fill="#060244" transform="translate(0,0)"/>
<path d="" fill="#04005C" transform="translate(0,0)"/>
<path d="" fill="#010154" transform="translate(0,0)"/>
<path d="" fill="#020075" transform="translate(0,0)"/>
<path d="" fill="#000000" transform="translate(0,0)"/>
<path d="" fill="#040646" transform="translate(0,0)"/>
<path d="" fill="#000000" transform="translate(0,0)"/>
<path d="" fill="#04054A" transform="translate(0,0)"/>
<path d="" fill="#000000" transform="translate(0,0)"/>
<path d="" fill="#000000" transform="translate(0,0)"/>
<path d="" fill="#000000" transform="translate(0,0)"/>
<path d="M0 0 C2 1 2 1 2 1 Z " fill="#000000" transform="translate(161,60)"/>
<path d="" fill="#000000" transform="translate(0,0)"/>
<path d="" fill="#000000" transform="translate(0,0)"/>
<path d="" fill="#000000" transform="translate(0,0)"/>
<path d="M0 0 C2 1 2 1 2 1 Z " fill="#000000" transform="translate(238,44)"/>
<path d="" fill="#000000" transform="translate(0,0)"/>
<path d="" fill="#000000" transform="translate(0,0)"/>
<path d="" fill="#000000" transform="translate(0,0)"/>
<path d="" fill="#040648" transform="translate(0,0)"/>
<path d="" fill="#000000" transform="translate(0,0)"/>
<path d="" fill="#03016B" transform="translate(0,0)"/>
<path d="" fill="#060439" transform="translate(0,0)"/>
<path d="" fill="#000000" transform="translate(0,0)"/>
<path d="" fill="#040361" transform="translate(0,0)"/>
<path d="" fill="#040150" transform="translate(0,0)"/>
<path d="" fill="#070099" transform="translate(0,0)"/>
<path d="" fill="#000000" transform="translate(0,0)"/>
<path d="" fill="#000000" transform="translate(0,0)"/>
<path d="M0 0 C2 1 2 1 2 1 Z " fill="#000000" transform="translate(171,21)"/>
<path d="M0 0 C2 1 2 1 2 1 Z " fill="#000000" transform="translate(163,21)"/>
<path d="M0 0 C2 1 2 1 2 1 Z " fill="#000000" transform="translate(147,21)"/>
<path d="M0 0 C2 1 2 1 2 1 Z " fill="#000000" transform="translate(138,21)"/>
<path d="" fill="#000000" transform="translate(0,0)"/>
<path d="" fill="#030056" transform="translate(0,0)"/>
<path d="" fill="#030237" transform="translate(0,0)"/>
<path d="M0 0 C2 1 2 1 2 1 Z " fill="#00004C" transform="translate(29,3)"/>
<path d="" fill="#000000" transform="translate(0,0)"/>
<path d="" fill="#000000" transform="translate(0,0)"/>
<path d="" fill="#04005F" transform="translate(0,0)"/>
<path d="" fill="#030054" transform="translate(0,0)"/>
<path d="" fill="#050058" transform="translate(0,0)"/>
<path d="" fill="#060351" transform="translate(0,0)"/>
<path d="" fill="#050451" transform="translate(0,0)"/>
<path d="" fill="#060062" transform="translate(0,0)"/>
<path d="" fill="#050082" transform="translate(0,0)"/>
<path d="" fill="#000000" transform="translate(0,0)"/>
<path d="" fill="#000000" transform="translate(0,0)"/>
<path d="" fill="#000000" transform="translate(0,0)"/>
<path d="" fill="#030068" transform="translate(0,0)"/>
<path d="" fill="#000000" transform="translate(0,0)"/>
<path d="" fill="#000000" transform="translate(0,0)"/>
<path d="" fill="#000000" transform="translate(0,0)"/>
<path d="" fill="#000000" transform="translate(0,0)"/>
<path d="" fill="#070056" transform="translate(0,0)"/>
<path d="" fill="#010251" transform="translate(0,0)"/>
<path d="" fill="#000000" transform="translate(0,0)"/>
<path d="" fill="#000000" transform="translate(0,0)"/>
<path d="" fill="#000000" transform="translate(0,0)"/>
<path d="" fill="#070054" transform="translate(0,0)"/>
<path d="" fill="#000447" transform="translate(0,0)"/>
<path d="" fill="#000000" transform="translate(0,0)"/>
<path d="" fill="#000000" transform="translate(0,0)"/>
<path d="" fill="#07024C" transform="translate(0,0)"/>
<path d="" fill="#02024B" transform="translate(0,0)"/>
<path d="" fill="#000000" transform="translate(0,0)"/>
<path d="" fill="#040245" transform="translate(0,0)"/>
<path d="" fill="#000000" transform="translate(0,0)"/>
<path d="" fill="#000000" transform="translate(0,0)"/>
<path d="" fill="#05023C" transform="translate(0,0)"/>
<path d="" fill="#000000" transform="translate(0,0)"/>
<path d="" fill="#000000" transform="translate(0,0)"/>
<path d="" fill="#000000" transform="translate(0,0)"/>
<path d="" fill="#000000" transform="translate(0,0)"/>
<path d="" fill="#000000" transform="translate(0,0)"/>
<path d="" fill="#000000" transform="translate(0,0)"/>
<path d="" fill="#000000" transform="translate(0,0)"/>
<path d="" fill="#000000" transform="translate(0,0)"/>
<path d="" fill="#000000" transform="translate(0,0)"/>
<path d="" fill="#000000" transform="translate(0,0)"/>
<path d="" fill="#000000" transform="translate(0,0)"/>
<path d="" fill="#000000" transform="translate(0,0)"/>
<path d="" fill="#000000" transform="translate(0,0)"/>
<path d="" fill="#000000" transform="translate(0,0)"/>
<path d="" fill="#000000" transform="translate(0,0)"/>
<path d="" fill="#000000" transform="translate(0,0)"/>
<path d="" fill="#000000" transform="translate(0,0)"/>
<path d="" fill="#000000" transform="translate(0,0)"/>
<path d="" fill="#000000" transform="translate(0,0)"/>
<path d="" fill="#000000" transform="translate(0,0)"/>
<path d="" fill="#000000" transform="translate(0,0)"/>
<path d="" fill="#000000" transform="translate(0,0)"/>
<path d="" fill="#000000" transform="translate(0,0)"/>
<path d="" fill="#000000" transform="translate(0,0)"/>
<path d="" fill="#000000" transform="translate(0,0)"/>
<path d="" fill="#000000" transform="translate(0,0)"/>
<path d="" fill="#000000" transform="translate(0,0)"/>
<path d="" fill="#000000" transform="translate(0,0)"/>
<path d="" fill="#000000" transform="translate(0,0)"/>
<path d="" fill="#000000" transform="translate(0,0)"/>
<path d="" fill="#000000" transform="translate(0,0)"/>
<path d="" fill="#000000" transform="translate(0,0)"/>
<path d="" fill="#000000" transform="translate(0,0)"/>
<path d="" fill="#000000" transform="translate(0,0)"/>
<path d="" fill="#000000" transform="translate(0,0)"/>
<path d="" fill="#000000" transform="translate(0,0)"/>
<path d="" fill="#000000" transform="translate(0,0)"/>
<path d="" fill="#000000" transform="translate(0,0)"/>
<path d="" fill="#000000" transform="translate(0,0)"/>
<path d="" fill="#000000" transform="translate(0,0)"/>
<path d="" fill="#000000" transform="translate(0,0)"/>
<path d="" fill="#000000" transform="translate(0,0)"/>
<path d="" fill="#000000" transform="translate(0,0)"/>
<path d="" fill="#000000" transform="translate(0,0)"/>
<path d="" fill="#000000" transform="translate(0,0)"/>
<path d="" fill="#000000" transform="translate(0,0)"/>
<path d="" fill="#000000" transform="translate(0,0)"/>
<path d="" fill="#000000" transform="translate(0,0)"/>
<path d="" fill="#000000" transform="translate(0,0)"/>
<path d="" fill="#000000" transform="translate(0,0)"/>
<path d="" fill="#000000" transform="translate(0,0)"/>
<path d="" fill="#000000" transform="translate(0,0)"/>
<path d="" fill="#000000" transform="translate(0,0)"/>
<path d="" fill="#000000" transform="translate(0,0)"/>
<path d="" fill="#04014B" transform="translate(0,0)"/>
<path d="" fill="#000000" transform="translate(0,0)"/>
<path d="" fill="#06026A" transform="translate(0,0)"/>
<path d="" fill="#000000" transform="translate(0,0)"/>
<path d="" fill="#020441" transform="translate(0,0)"/>
<path d="" fill="#000000" transform="translate(0,0)"/>
<path d="" fill="#000000" transform="translate(0,0)"/>
<path d="" fill="#060073" transform="translate(0,0)"/>
<path d="" fill="#000000" transform="translate(0,0)"/>
<path d="" fill="#000000" transform="translate(0,0)"/>
<path d="" fill="#060351" transform="translate(0,0)"/>
<path d="" fill="#000000" transform="translate(0,0)"/>
<path d="" fill="#000000" transform="translate(0,0)"/>
<path d="" fill="#000000" transform="translate(0,0)"/>
<path d="" fill="#000000" transform="translate(0,0)"/>
<path d="" fill="#000000" transform="translate(0,0)"/>
<path d="" fill="#000000" transform="translate(0,0)"/>
<path d="" fill="#000000" transform="translate(0,0)"/>
<path d="" fill="#000000" transform="translate(0,0)"/>
<path d="" fill="#000000" transform="translate(0,0)"/>
<path d="" fill="#000000" transform="translate(0,0)"/>
<path d="" fill="#000000" transform="translate(0,0)"/>
<path d="" fill="#000000" transform="translate(0,0)"/>
<path d="" fill="#000000" transform="translate(0,0)"/>
<path d="" fill="#000000" transform="translate(0,0)"/>
<path d="" fill="#000000" transform="translate(0,0)"/>
<path d="" fill="#000000" transform="translate(0,0)"/>
<path d="" fill="#000000" transform="translate(0,0)"/>
<path d="" fill="#050444" transform="translate(0,0)"/>
<path d="" fill="#000000" transform="translate(0,0)"/>
<path d="" fill="#000000" transform="translate(0,0)"/>
<path d="" fill="#060159" transform="translate(0,0)"/>
<path d="" fill="#090556" transform="translate(0,0)"/>
<path d="" fill="#130A68" transform="translate(0,0)"/>
<path d="" fill="#060055" transform="translate(0,0)"/>
<path d="" fill="#070069" transform="translate(0,0)"/>
<path d="" fill="#030070" transform="translate(0,0)"/>
</svg>
